<svg width="961" height="1536" viewBox="0 0 961 1536" fill="none" xmlns="http://www.w3.org/2000/svg">
<path d="M480.126 0C424.889 0 380.114 45.2711 380.114 101.139C380.114 157.006 424.889 202.277 480.126 202.277C535.362 202.277 580.137 157.006 580.137 101.139C580.137 45.2711 535.362 0 480.126 0ZM480.126 151.73C452.485 151.73 430.12 129.095 430.12 101.139C430.12 73.1823 452.53 50.5468 480.126 50.5468C507.721 50.5468 530.131 73.1823 530.131 101.139C530.131 129.095 507.721 151.73 480.126 151.73Z" fill="#024ABA"/>
<path d="M600.158 485.538V1457.33L480.082 1535.97L360.095 1457.42V485.538H440.086V1365.21L480.082 1391.37L520.122 1365.12V485.538H600.158Z" fill="#024ABA"/>
<path d="M320.055 485.538V768.798H240.064V606.923H200.023V809.245H240.064V890.183H200.023V1352.54L120.032 1300.15V627.168C146.455 627.168 171.21 619.773 192.358 606.923C194.973 605.344 197.543 603.676 200.023 601.917C216.166 590.645 229.828 575.99 240.064 559.081C246.241 548.846 251.201 537.753 254.628 526.03C258.416 513.224 260.49 499.652 260.49 485.538H320.055Z" fill="#024ABA"/>
<path d="M960.253 485.357C960.253 552.272 906.505 606.516 840.222 606.516C809.47 606.516 781.423 594.838 760.186 575.674C735.656 553.535 720.235 521.34 720.19 485.538H800.181C800.181 507.903 818.127 526.029 840.222 526.029C862.316 526.029 880.217 507.903 880.217 485.538C880.217 463.173 862.316 445.091 840.222 445.091H120.032C97.9372 445.091 79.991 463.218 79.991 485.538C79.991 507.858 97.9372 526.029 120.032 526.029C142.126 526.029 160.027 507.903 160.027 485.538H240.063C240.018 521.34 224.552 553.535 200.023 575.674C188.479 586.09 174.907 594.297 160.027 599.617C147.492 604.081 134.055 606.516 120.032 606.516C53.7482 606.516 0 552.272 0 485.357C0 418.443 53.7482 364.153 120.032 364.153H840.222C906.505 364.153 960.253 418.398 960.253 485.357Z" fill="#024ABA"/>
<path d="M160.027 242.77H800.181C800.181 287.455 763.928 323.707 719.243 323.707H240.919C196.234 323.707 159.981 287.455 159.981 242.77H160.027Z" fill="#024ABA"/>
<path d="M760.187 751.934V606.517H720.191V768.708L840.223 890.093V1300.06L640.155 1431.14V859.431L720.191 940.369V1234.05L760.187 1207.85V923.595L640.155 802.211V485.538H699.72C699.765 533.74 723.663 576.306 760.187 601.872C762.487 603.496 764.786 605.029 767.221 606.517C788.504 619.593 813.484 627.168 840.223 627.168V832.917L760.187 751.98V751.934Z" fill="#024ABA"/>
</svg>
