<svg width="1388" height="2102" viewBox="0 0 1388 2102" fill="none" xmlns="http://www.w3.org/2000/svg">
<path d="M693.585 93.6113C625.41 93.6113 570.175 150.751 570.175 221.25C570.175 282.31 611.555 333.312 666.921 345.913C675.495 347.887 684.435 348.915 693.585 348.915C702.734 348.915 711.674 347.887 720.248 345.913C775.588 333.312 816.968 282.31 816.968 221.25C816.968 150.751 761.733 93.6113 693.585 93.6113ZM693.585 285.096C659.497 285.096 631.867 256.512 631.867 221.25C631.867 185.987 659.497 157.43 693.585 157.43C727.672 157.43 755.277 186.014 755.277 221.25C755.277 256.485 727.646 285.096 693.585 285.096Z" fill="white"/>
<path d="M842.504 697.83V1894.5L839.559 1896.43L693.498 1991.37L544.649 1894.61V697.83H643.917V1781.04L693.498 1813.29L743.21 1780.94V697.83H842.504Z" fill="white"/>
<path d="M493.586 697.83V1048.14H394.879V847.957H345.499V1098.18H394.879V1198.27H345.499V1770.11L246.792 1705.28V872.974C279.415 872.974 309.948 863.831 336.036 847.957C339.251 845.996 342.414 843.929 345.499 841.756C365.392 827.79 382.253 809.716 394.879 788.754C402.512 776.087 408.602 762.386 412.863 747.89C417.542 732.043 420.078 715.241 420.104 697.83H493.586Z" fill="white"/>
<path d="M1293.54 693.589C1293.54 757.315 1253.22 811.693 1196.5 832.944C1180.04 839.132 1162.19 842.503 1143.55 842.503C1105.13 842.503 1070.08 828.151 1043.55 804.583C1012.91 777.354 993.64 737.828 993.56 693.826H1093.54C1093.54 721.291 1115.94 743.569 1143.55 743.569C1171.17 743.569 1193.54 721.291 1193.54 693.826C1193.54 666.36 1171.17 644.109 1143.55 644.109H243.606C215.991 644.109 193.592 666.36 193.592 693.826C193.592 721.291 215.991 743.569 243.606 743.569C271.221 743.569 293.594 721.291 293.594 693.826H393.597C393.518 737.828 374.216 777.381 343.582 804.583C329.152 817.407 312.207 827.493 293.594 834.023C277.946 839.527 261.134 842.503 243.606 842.503C224.966 842.503 207.121 839.132 190.652 832.944C133.939 811.719 93.6152 757.315 93.6152 693.589C93.6152 611.324 160.76 544.648 243.606 544.648H1143.55C1226.37 544.648 1293.54 611.324 1293.54 693.589Z" fill="white"/>
<path d="M1097.8 391.466C1097.8 419.647 1086.6 445.177 1068.52 463.676C1055.89 476.549 1039.9 486.015 1022.02 490.558C1014.27 492.533 1006.16 493.587 997.797 493.587H397.854C389.487 493.587 381.385 492.533 373.627 490.558C330.099 479.497 297.85 439.335 297.85 391.466H1097.8Z" fill="white"/>
<path d="M1041.63 1026.28V846.997H992.282V1047L1140.35 1196.64V1702.11L896.487 1861.79L893.56 1863.72V1158.83L896.487 1161.79L992.282 1258.65V1620.73L1041.63 1588.42V1237.96L896.487 1091.25L893.56 1088.29V700.789H896.487V697.83H967.059C967.138 757.275 996.621 809.771 1041.63 841.29C1044.45 843.298 1047.33 845.174 1050.28 846.997C1076.52 863.14 1107.37 872.44 1140.35 872.44V1126.1L1041.63 1026.28Z" fill="white"/>
<path d="M693.575 0C813.758 0.000199947 911.51 97.6936 911.51 217.744C911.51 246.353 905.942 274.247 895.337 300.127H1186.87V392.84C1186.87 413.184 1183.61 433.29 1177.35 452.415C1295.68 468.627 1387.15 570.188 1387.15 692.702C1387.15 791.588 1326.73 879.771 1236.96 916.83V1750.27L693.495 2102L150.195 1750.4V916.83C60.423 879.771 5.68402e-06 791.561 0 692.702C0 570.214 91.4429 468.653 209.77 452.415C203.513 433.29 200.251 413.157 200.251 392.84V300.127H491.786C481.181 274.247 475.613 246.353 475.613 217.744C475.613 97.667 573.393 0 693.575 0ZM693.572 42.5508C595.76 42.5508 516.138 122.495 516.138 220.734C516.138 268.011 534.565 311.046 564.582 342.971H241.947V396.002C241.947 432.832 254.989 466.692 276.663 493.154H244.904C133.311 493.154 42.5479 584.235 42.5479 696.157C42.548 789.757 106.04 868.773 192.104 892.106V1733.26L693.493 2059.45L1195.04 1733.15V892.106C1281.1 868.773 1344.6 789.757 1344.6 696.157C1344.6 584.235 1253.81 493.154 1142.24 493.154H1110.46C1132.13 466.692 1145.17 432.832 1145.17 396.002V342.971H822.536C852.553 311.046 870.98 268.011 870.98 220.734C870.98 122.495 791.384 42.5509 693.572 42.5508ZM643.702 1784.91L693.493 1817.31L743.415 1784.8V696.396H843.128V1898.92L840.171 1900.86L693.493 1996.26L544.016 1899.03V696.396H643.702V1784.91ZM583.149 1872.79L693.495 1944.2L804.001 1872.71V732.675H783.4V1801.87L693.495 1860.1L603.723 1801.98V732.675H583.149V1872.79ZM967.208 696.396C967.287 756.055 997.067 808.742 1042.53 840.375C1045.38 842.39 1048.28 844.272 1051.27 846.102C1077.77 862.303 1108.92 871.637 1142.24 871.637V1126.21L1042.53 1026.04V846.102H992.684V1046.82L1142.24 1197.01V1704.3L895.928 1864.56L892.972 1866.5V1159.06L895.928 1162.03L992.684 1259.24V1622.63L1042.53 1590.21V1238.48L895.928 1091.24L892.972 1088.27V696.396H967.208ZM933.596 1067.98L1083.79 1218.04V1607.49L954.195 1691.36V1271.68L933.596 1251.1V1788.79L1104.39 1678.25V1209.51L954.195 1059.48V802.767H959.021C947.196 782.979 938.58 761.336 933.596 738.661V1067.98ZM494.146 1046.9H394.46V846.605H344.59V1096.96H394.46V1197.11H344.59V1769.26L244.904 1704.41V871.637C277.851 871.637 308.686 862.488 335.033 846.605C338.28 844.643 341.475 842.576 344.59 840.401C364.68 826.428 381.709 808.344 394.46 787.37C402.169 774.696 408.32 760.987 412.623 746.483C417.349 730.627 419.909 713.816 419.936 696.396H494.146V1046.9ZM303.333 899.162C296.572 901.122 289.705 902.765 282.759 904.062V1678.38L303.333 1691.7V1153.44H353.416V1132.85H303.333V899.162ZM1083.79 1005.81L1104.39 1026.39V904.062C1097.44 902.765 1090.58 901.122 1083.79 899.162V1005.81ZM453.528 738.927C452.388 744.119 451.062 749.284 449.524 754.37C444.46 771.403 437.17 787.853 427.891 803.27H432.954V1003.37H453.528V738.927ZM1142.24 546.186C1224.82 546.186 1291.8 613.323 1291.8 696.157C1291.8 760.325 1251.59 815.079 1195.04 836.477C1178.62 842.708 1160.83 846.102 1142.24 846.102C1103.93 846.102 1068.98 831.651 1042.53 807.92C1011.98 780.503 992.763 740.703 992.684 696.396H1092.37C1092.37 724.051 1114.71 746.483 1142.24 746.483C1169.78 746.483 1192.08 724.051 1192.08 696.396C1192.08 668.74 1169.78 646.334 1142.24 646.334H244.904C217.369 646.334 195.034 668.74 195.034 696.396C195.034 724.051 217.369 746.483 244.904 746.483C272.439 746.483 294.747 724.051 294.747 696.396H394.46C394.381 740.703 375.135 780.529 344.59 807.92C330.202 820.833 313.306 830.988 294.747 837.563C279.145 843.105 262.381 846.102 244.904 846.102C226.319 846.102 208.524 842.708 192.104 836.477C135.555 815.105 95.3478 760.324 95.3477 696.157C95.3477 613.323 162.299 546.186 244.904 546.186H1142.24ZM242.989 582.611C182.09 582.612 132.564 631.988 132.564 692.702C132.564 738.238 161.251 779.641 203.963 795.693C216.397 800.382 229.521 802.767 242.989 802.767C255.662 802.767 268.044 800.673 279.789 796.515C293.417 791.72 305.799 784.382 316.616 774.74C329.66 763.085 339.629 748.621 345.859 732.675H323.535C308.847 762.29 278.251 782.714 242.989 782.714C193.437 782.714 153.138 742.449 153.138 692.94C153.138 643.432 193.437 603.195 242.989 603.194H1144.16C1193.69 603.194 1233.99 643.458 1233.99 692.94C1233.99 742.423 1193.69 782.714 1144.16 782.714C1108.9 782.714 1078.3 762.29 1063.59 732.675H1041.29C1047.52 748.622 1057.46 763.085 1070.51 774.74C1090.76 792.806 1116.93 802.767 1144.16 802.767C1157.63 802.767 1170.73 800.382 1183.13 795.72C1225.87 779.641 1254.59 738.238 1254.59 692.702C1254.59 631.988 1205.06 582.611 1144.16 582.611H242.989ZM1092.37 396.002C1092.37 423.631 1081.2 448.661 1063.17 466.798C1050.58 479.419 1034.63 488.7 1016.81 493.154C1009.08 495.09 1001 496.124 992.658 496.124H394.46C386.118 496.124 378.039 495.09 370.304 493.154C326.902 482.309 294.747 442.934 294.747 396.002H1092.37ZM347.715 432.574C355.616 441.581 366.221 448.283 378.523 451.329C383.296 452.521 388.227 453.131 393.185 453.131H993.938C998.896 453.131 1003.8 452.521 1008.57 451.329C1019.15 448.707 1028.86 443.197 1036.65 435.436C1037.58 434.508 1038.48 433.554 1039.33 432.574H347.715ZM693.572 95.582C762.397 95.5822 818.18 151.609 818.18 220.734C818.18 280.606 776.389 330.614 720.5 342.971C711.841 344.906 702.812 345.914 693.572 345.914C684.332 345.914 675.303 344.906 666.644 342.971C610.729 330.614 568.938 280.606 568.938 220.734C568.938 151.609 624.721 95.582 693.572 95.582ZM693.575 132.448C646.488 132.448 608.177 170.699 608.177 217.744C608.177 257.505 636.308 292.524 675.069 301.054C681.114 302.405 687.292 303.067 693.575 303.067C699.859 303.067 706.036 302.405 711.975 301.08C750.816 292.524 778.946 257.505 778.946 217.744C778.946 170.699 740.635 132.448 693.575 132.448Z" fill="white"/>
</svg>
