<svg width="2885" height="2529" viewBox="0 0 2885 2529" fill="none" xmlns="http://www.w3.org/2000/svg">
<path d="M1442.5 0C1387.26 0 1342.49 45.2711 1342.49 101.139C1342.49 157.006 1387.26 202.277 1442.5 202.277C1497.73 202.277 1542.51 157.006 1542.51 101.139C1542.51 45.2711 1497.73 0 1442.5 0ZM1442.5 151.73C1414.86 151.73 1392.49 129.095 1392.49 101.139C1392.49 73.1823 1414.9 50.5468 1442.5 50.5468C1470.09 50.5468 1492.5 73.1823 1492.5 101.139C1492.5 129.095 1470.09 151.73 1442.5 151.73Z" fill="#D79D5D"/>
<path d="M1562.53 485.537V1457.33L1442.45 1535.97L1322.47 1457.42V485.537H1402.46V1365.21L1442.45 1391.37L1482.49 1365.12V485.537H1562.53Z" fill="#D79D5D"/>
<path d="M1282.43 485.537V768.797H1202.44V606.922H1162.39V809.244H1202.44V890.182H1162.39V1352.54L1082.4 1300.15V627.167C1108.83 627.167 1133.58 619.772 1154.73 606.922C1157.34 605.343 1159.91 603.675 1162.39 601.916C1178.54 590.644 1192.2 575.989 1202.44 559.08C1208.61 548.845 1213.57 537.752 1217 526.029C1220.79 513.223 1222.86 499.651 1222.86 485.537H1282.43Z" fill="#D79D5D"/>
<path d="M1922.63 485.358C1922.63 552.273 1868.88 606.517 1802.59 606.517C1771.84 606.517 1743.8 594.839 1722.56 575.675C1698.03 553.536 1682.61 521.341 1682.56 485.539H1762.55C1762.55 507.904 1780.5 526.03 1802.59 526.03C1824.69 526.03 1842.59 507.904 1842.59 485.539C1842.59 463.174 1824.69 445.092 1802.59 445.092H1082.4C1060.31 445.092 1042.36 463.219 1042.36 485.539C1042.36 507.859 1060.31 526.03 1082.4 526.03C1104.5 526.03 1122.4 507.904 1122.4 485.539H1202.43C1202.39 521.341 1186.92 553.536 1162.39 575.675C1150.85 586.091 1137.28 594.298 1122.4 599.618C1109.86 604.082 1096.43 606.517 1082.4 606.517C1016.12 606.517 962.372 552.273 962.372 485.358C962.372 418.444 1016.12 364.154 1082.4 364.154H1802.59C1868.88 364.154 1922.63 418.398 1922.63 485.358Z" fill="#D79D5D"/>
<path d="M1122.4 242.77H1762.55C1762.55 287.455 1726.3 323.707 1681.61 323.707H1203.29C1158.61 323.707 1122.35 287.455 1122.35 242.77H1122.4Z" fill="#D79D5D"/>
<path d="M1722.56 751.933V606.516H1682.56V768.707L1802.59 890.092V1300.06L1602.53 1431.14V859.43L1682.56 940.368V1234.04L1722.56 1207.85V923.594L1602.53 802.21V485.537H1662.09C1662.14 533.739 1686.03 576.305 1722.56 601.871C1724.86 603.495 1727.16 605.028 1729.59 606.516C1750.88 619.592 1775.86 627.167 1802.59 627.167V832.917L1722.56 751.979V751.933Z" fill="#D79D5D"/>
<path d="M47.6157 1799.08V1953.87H47.7961V1799.08H47.6157Z" fill="#D79D5D"/>
<path d="M275.279 1962.62C277.127 1959.19 278.209 1955.54 278.615 1951.71C279.021 1947.88 279.247 1944.36 279.247 1941.11V1794.75C279.247 1784.29 275.369 1775.18 267.748 1767.56C260.083 1759.89 250.794 1756.06 239.972 1756.06H155.292V2196.33H203.088V1997.34H231.495V2196.33H279.292V2008.84C279.292 2002.39 277.939 1995.85 275.324 1989.18C272.708 1982.55 265.133 1978.22 252.643 1976.19C258.685 1975.38 263.555 1973.76 267.162 1971.37C270.769 1968.93 273.52 1966.05 275.324 1962.62H275.279ZM231.45 1953.87H203.043V1799.08H231.45V1953.87Z" fill="#D79D5D"/>
<path d="M415.872 1799.08V1756.15H315.455V2196.42H415.872V2153.49H363.251V1997.48H407.395V1953.96H363.251V1799.17H415.872V1799.08Z" fill="#D79D5D"/>
<path d="M444.91 1756.11V2196.37H493.292V1756.11H444.91Z" fill="#D79D5D"/>
<path d="M651.427 1962.62C653.275 1959.19 654.358 1955.54 654.763 1951.71C655.169 1947.88 655.35 1944.36 655.35 1941.11V1794.75C655.35 1784.29 651.517 1775.18 643.851 1767.56C636.186 1759.89 626.897 1756.06 616.03 1756.06H531.395V2196.33H579.146V1997.34H607.598V2196.33H655.35V2008.84C655.35 2002.39 654.042 1995.85 651.427 1989.18C648.811 1982.55 641.236 1978.22 628.746 1976.19C634.788 1975.38 639.658 1973.76 643.265 1971.37C646.873 1968.98 649.623 1966.05 651.427 1962.62ZM607.598 1953.87H579.146V1799.08H607.598V1953.87Z" fill="#D79D5D"/>
<path d="M792.019 1799.08V1756.15H691.602V2196.42H792.019V2153.49H739.398V1997.48H783.542V1953.96H739.398V1799.17H792.019V1799.08Z" fill="#D79D5D"/>
<path d="M815.603 2140.73L795.042 2250.17H831.34L863.986 2140.73H815.603Z" fill="#D79D5D"/>
<path d="M1106.48 2087.61V2098.8L1112.07 2093.2L1106.48 2087.61Z" fill="#D79D5D"/>
<path d="M1106.48 1756.11V2087.61L1112.07 2093.2L1106.48 2098.8V2196.33H1154.28V1997.34H1182.69V2196.33H1230.48V1756.06H1106.48V1756.11ZM1182.69 1953.87H1154.28V1799.08H1182.69V1953.87Z" fill="#D79D5D"/>
<path d="M1389.47 1756.11V1898.82H1341.72V1799.08H1314.49V2153.45H1341.72V2053.66H1389.47V2196.42H1341.72V2196.37H1314.49V2196.42H1266.74V1756.11H1389.47Z" fill="#D79D5D"/>
<path d="M1497.74 1898.82V1799.08H1470.5V2153.45H1497.74V2053.66H1545.53V2196.42H1497.74V2196.37H1422.75V1756.11H1545.53V1898.82H1497.74Z" fill="#D79D5D"/>
<path d="M1578.76 1756.11V2196.37H1626.56V1997.39H1654.97V2196.37H1702.76V1756.11H1578.76ZM1654.97 1953.87H1626.56V1799.08H1654.97V1953.87Z" fill="#D79D5D"/>
<path d="M1859.05 1962.62C1860.85 1959.19 1861.98 1955.54 1862.38 1951.71C1862.79 1947.88 1862.97 1944.36 1862.97 1941.11V1794.75C1862.97 1784.29 1859.14 1775.18 1851.47 1767.56C1843.81 1759.89 1834.52 1756.06 1823.65 1756.06H1738.97V2196.33H1786.77V1997.34H1815.17V2196.33H1862.97V2008.84C1862.97 2002.39 1861.66 1995.85 1859.05 1989.18C1856.43 1982.55 1848.86 1978.22 1836.37 1976.19C1842.41 1975.38 1847.23 1973.76 1850.84 1971.37C1854.45 1968.98 1857.2 1966.05 1859 1962.62H1859.05ZM1815.22 1953.87H1786.81V1799.08H1815.22V1953.87Z" fill="#D79D5D"/>
<path d="M1901.07 1756.11V2196.37H1949.45V1756.11H1901.07Z" fill="#D79D5D"/>
<path d="M2148.44 1799.08V1756.15H2048.07V2196.42H2148.44V2153.49H2095.82V1997.48H2139.96V1953.96H2095.82V1799.17H2148.44V1799.08Z" fill="#D79D5D"/>
<path d="M2390.89 1756.11V2196.37H2439.28V1756.11H2390.89Z" fill="#D79D5D"/>
<path d="M2525.17 2153.45V1756.15H2477.38V2196.42H2574.77V2153.49H2525.17V2153.45Z" fill="#D79D5D"/>
<path d="M2885 2162.33V1756.15H2761V2196.42H2808.8V1997.43H2837.2V2196.42H2885V2162.37M2837.2 1953.87H2808.8V1799.08H2837.2V1953.87Z" fill="#D79D5D"/>
<path d="M118.995 1756.11V1925.47H76.0231V1799.08H47.6159V1953.87H76.0231V1997.39H47.7963V2196.37H0V1756.11H118.995Z" fill="#D79D5D"/>
<path d="M47.7961 1799.08H47.6157V1953.87H47.7961V1799.08Z" fill="#D79D5D"/>
<path d="M47.7961 1925.47H47.6157V1953.87H47.7961V1925.47Z" fill="#D79D5D"/>
<path d="M1008.91 2196.37L1008.82 2196.42L1008.77 2196.37H1008.91Z" fill="#D79D5D"/>
<path d="M1112.07 2093.2L1106.48 2098.8V2087.61L1112.07 2093.2Z" fill="#D79D5D"/>
<path d="M1008.91 2196.37L1008.82 2196.42L1008.77 2196.37H1008.91Z" fill="#D79D5D"/>
<path d="M1070.19 1756.11V2135.09L1008.91 2196.37H1008.77L947.448 2135.09V1756.11H995.199V2113.9L1008.82 2127.47L1022.43 2113.9V1756.11H1070.19Z" fill="#D79D5D"/>
<path d="M2724.75 1756.11V2135.09L2663.42 2196.37H2663.29L2601.96 2135.09V1756.11H2649.76V2113.9L2663.33 2127.47L2676.95 2113.9V1756.11H2724.75Z" fill="#D79D5D"/>
<path d="M2308.06 1899.58V1798.85H2280.87V1906.84L2308.06 1953.74L2354.24 2033.37L2355.86 2036.16V2196.37H2233.08V1968.8L2280.87 2051.18V2151.69H2308.06V2043.97L2280.87 1997.03L2234.16 1916.54L2233.08 1914.69V1756.11H2355.86V1982.01L2308.06 1899.58Z" fill="#D79D5D"/>
<path d="M523.955 2418.35H541.54L583.925 2526.26H566.656L555.112 2496.68H510.427L498.884 2526.26H481.614L524 2418.35H523.955ZM549.115 2481.53L532.792 2439.91L516.469 2481.53H549.16H549.115Z" fill="#D79D5D"/>
<path d="M713.2 2418.35H742.78C778.401 2418.35 802.75 2439.32 802.75 2472.28C802.75 2505.24 778.401 2526.21 742.78 2526.21H713.2V2418.31V2418.35ZM742.78 2509.75C769.293 2509.75 786.382 2496.18 786.382 2472.28C786.382 2448.38 769.293 2434.81 742.78 2434.81H729.703V2509.71H742.78V2509.75Z" fill="#D79D5D"/>
<path d="M931.98 2418.35H949.25L983.159 2504.66L1017.07 2418.35H1034.47L991.951 2526.26H974.366L931.98 2418.35Z" fill="#D79D5D"/>
<path d="M1163.75 2472.28C1163.75 2441.44 1189.18 2416.5 1219.98 2416.5C1250.77 2416.5 1276.07 2441.49 1276.07 2472.28C1276.07 2503.08 1250.64 2528.06 1219.98 2528.06C1189.31 2528.06 1163.75 2503.08 1163.75 2472.28ZM1219.98 2511.6C1241.71 2511.6 1259.61 2494.02 1259.61 2472.28C1259.61 2450.55 1241.71 2433.01 1219.98 2433.01C1198.24 2433.01 1180.21 2450.59 1180.21 2472.28C1180.21 2493.97 1198.24 2511.6 1219.98 2511.6Z" fill="#D79D5D"/>
<path d="M1405.34 2472.28C1405.34 2441.44 1430.64 2416.5 1461.44 2416.5C1479.02 2416.5 1494.71 2424.67 1505.22 2437.47L1492.14 2447.35C1484.75 2438.73 1473.66 2433.01 1461.48 2433.01C1439.75 2433.01 1421.89 2450.59 1421.89 2472.28C1421.89 2493.97 1439.75 2511.6 1461.48 2511.6C1480.42 2511.6 1492.01 2500.64 1496.34 2484.32H1458.73V2469.22H1514.69C1514.69 2502.67 1494.8 2528.1 1461.53 2528.1C1430.68 2528.1 1405.43 2503.12 1405.43 2472.33L1405.34 2472.28Z" fill="#D79D5D"/>
<path d="M1686.26 2418.35H1703.85L1746.23 2526.26H1728.96L1717.42 2496.68H1672.73L1661.19 2526.26H1643.92L1686.31 2418.35H1686.26ZM1711.38 2481.53L1695.05 2439.91L1678.73 2481.53H1711.42H1711.38Z" fill="#D79D5D"/>
<path d="M1875.46 2418.35H1905.04C1940.66 2418.35 1965.01 2439.32 1965.01 2472.28C1965.01 2505.24 1940.66 2526.21 1905.04 2526.21H1875.46V2418.31V2418.35ZM1905.04 2509.75C1931.55 2509.75 1948.64 2496.18 1948.64 2472.28C1948.64 2448.38 1931.55 2434.81 1905.04 2434.81H1891.96V2509.71H1905.04V2509.75Z" fill="#D79D5D"/>
<path d="M2094.24 2472.28C2094.24 2441.44 2119.67 2416.5 2150.47 2416.5C2181.27 2416.5 2206.56 2441.49 2206.56 2472.28C2206.56 2503.08 2181.13 2528.06 2150.47 2528.06C2119.81 2528.06 2094.24 2503.08 2094.24 2472.28ZM2150.51 2511.6C2172.25 2511.6 2190.15 2494.02 2190.15 2472.28C2190.15 2450.55 2172.25 2433.01 2150.51 2433.01C2128.78 2433.01 2110.74 2450.59 2110.74 2472.28C2110.74 2493.97 2128.78 2511.6 2150.51 2511.6Z" fill="#D79D5D"/>
<path d="M2335.84 2499.25L2352.16 2497.71C2352.48 2500.01 2355.09 2511.6 2369.88 2511.6C2381.16 2511.6 2387.74 2505.6 2387.74 2496.63C2387.74 2486.44 2381.25 2484.59 2368.3 2478.91C2356.13 2473.5 2339.18 2468.45 2339.18 2445.32C2339.18 2429 2352.3 2416.5 2368.94 2416.5C2385.57 2416.5 2397.43 2428.54 2398.83 2441.49L2382.51 2443.47C2382.06 2440.09 2378.04 2433.01 2368.94 2433.01C2360.59 2433.01 2355.36 2438.42 2355.36 2445.32C2355.36 2454.56 2361.36 2457.81 2375.11 2463.99C2386.97 2469.22 2404.42 2474.18 2404.42 2496.68C2404.42 2515.79 2389.45 2528.1 2369.88 2528.1C2348.46 2528.1 2336.88 2513.63 2335.84 2499.29V2499.25Z" fill="#D79D5D"/>
</svg>
