<svg width="3302" height="819" viewBox="0 0 3302 819" fill="none" xmlns="http://www.w3.org/2000/svg">
<path d="M255.798 0C226.387 0 202.522 24.1176 202.522 53.8654C202.522 83.6131 226.387 107.773 255.798 107.773C285.21 107.773 309.076 83.6552 309.076 53.8654C309.076 24.0756 285.21 0 255.798 0ZM255.798 80.84C241.093 80.84 229.16 68.7812 229.16 53.9073C229.16 39.0334 241.093 26.9746 255.798 26.9746C270.504 26.9746 282.437 39.0334 282.437 53.9073C282.437 68.7812 270.504 80.84 255.798 80.84Z" fill="#D79D5D"/>
<path d="M319.748 258.654V776.341L255.756 818.232L191.849 776.383V258.654H234.496V727.224L255.756 741.173L277.101 727.182V258.654H319.748Z" fill="#D79D5D"/>
<path d="M170.546 258.654V409.536H127.941V323.318H106.638V431.091H127.941V474.2H106.638V720.501L64.0334 692.56V334.074C78.109 334.074 91.3024 330.125 102.563 323.318C103.949 322.478 105.336 321.595 106.638 320.629C115.21 314.62 122.521 306.847 127.941 297.814C131.218 292.352 133.865 286.469 135.714 280.209C137.731 273.402 138.823 266.133 138.823 258.654H170.546Z" fill="#D79D5D"/>
<path d="M511.553 258.529C511.553 294.159 482.897 323.066 447.603 323.066C431.217 323.066 416.301 316.848 404.956 306.638C391.889 294.831 383.696 277.688 383.654 258.613H426.259C426.259 270.503 435.797 280.167 447.561 280.167C459.326 280.167 468.864 270.503 468.864 258.613C468.864 246.722 459.326 237.058 447.561 237.058H63.9077C52.143 237.058 42.6049 246.722 42.6049 258.613C42.6049 270.503 52.143 280.167 63.9077 280.167C75.6723 280.167 85.2099 270.503 85.2099 258.613H127.857C127.857 277.688 119.579 294.831 106.554 306.638C100.42 312.184 93.1931 316.554 85.2519 319.411C78.5713 321.806 71.4287 323.066 63.9497 323.066C28.6137 323.066 0 294.159 0 258.529C0 222.899 28.6137 193.949 63.9497 193.949H447.603C482.897 193.949 511.553 222.857 511.553 258.529Z" fill="#D79D5D"/>
<path d="M85.2943 129.328H426.301V140.084C426.301 157.941 411.805 172.437 393.948 172.437H117.605C99.7477 172.437 85.2522 157.941 85.2522 140.084V129.328H85.2943Z" fill="#D79D5D"/>
<path d="M404.999 400.544V323.066H383.697V409.494L447.646 474.158V692.56L341.092 762.392V457.855L383.739 500.964V657.392L405.041 643.443V492.015L341.092 427.351V258.654H372.814C372.814 284.326 385.588 307.015 404.999 320.629C406.218 321.511 407.478 322.309 408.739 323.108C420.083 330.083 433.403 334.116 447.646 334.116V443.696L404.999 400.587V400.544Z" fill="#D79D5D"/>
<path d="M657.394 298.82V443.063H657.562V298.82H657.394Z" fill="#D79D5D"/>
<path d="M869.493 451.258C871.216 448.064 872.224 444.661 872.602 441.09C872.98 437.518 873.191 434.241 873.191 431.216V294.83C873.191 285.082 869.577 276.594 862.476 269.493C855.333 262.351 846.678 258.779 836.594 258.779H757.687V669.03H802.224V483.61H828.695V669.03H873.233V494.325C873.233 488.316 871.972 482.224 869.535 476.005C867.098 469.829 860.039 465.795 848.401 463.905C854.031 463.148 858.569 461.636 861.93 459.409C865.291 457.14 867.854 454.451 869.535 451.258H869.493ZM828.653 443.064H802.182V298.821H828.653V443.064Z" fill="#D79D5D"/>
<path d="M1000.54 298.822V258.822H906.972V669.073H1000.54V629.073H951.51V483.695H992.644V443.149H951.51V298.906H1000.54V298.822Z" fill="#D79D5D"/>
<path d="M1027.56 258.822V669.073H1072.64V258.822H1027.56Z" fill="#D79D5D"/>
<path d="M1220 451.258C1221.72 448.064 1222.73 444.661 1223.11 441.09C1223.48 437.518 1223.65 434.241 1223.65 431.216V294.83C1223.65 285.082 1220.08 276.594 1212.94 269.493C1205.8 262.351 1197.14 258.779 1187.01 258.779H1108.15V669.03H1152.64V483.61H1179.16V669.03H1223.65V494.325C1223.65 488.316 1222.43 482.224 1220 476.005C1217.56 469.829 1210.5 465.795 1198.86 463.905C1204.49 463.148 1209.03 461.636 1212.39 459.409C1215.75 457.182 1218.32 454.451 1220 451.258ZM1179.16 443.064H1152.64V298.821H1179.16V443.064Z" fill="#D79D5D"/>
<path d="M1351.05 298.822V258.822H1257.48V669.073H1351.05V629.073H1302.01V483.695H1343.15V443.149H1302.01V298.906H1351.05V298.822Z" fill="#D79D5D"/>
<path d="M1373.02 617.182L1353.86 719.156H1387.68L1418.1 617.182H1373.02Z" fill="#D79D5D"/>
<path d="M1644.03 567.728V578.148L1649.24 572.938L1644.03 567.728Z" fill="#D79D5D"/>
<path d="M1644.03 258.821V567.728L1649.24 572.938L1644.03 578.148V669.03H1688.57V483.61H1715.04V669.03H1759.57V258.779H1644.03V258.821ZM1715.04 443.064H1688.57V298.821H1715.04V443.064Z" fill="#D79D5D"/>
<path d="M1907.77 258.822V391.805H1863.23V298.822H1837.89V629.031H1863.23V536.048H1907.77V669.115H1863.23V669.031H1837.89V669.115H1793.36V258.822H1907.77Z" fill="#D79D5D"/>
<path d="M2008.61 391.805V298.822H1983.27V629.031H2008.61V536.048H2053.14V669.115H2008.61V669.031H1938.73V258.822H2053.14V391.805H2008.61Z" fill="#D79D5D"/>
<path d="M2084.15 258.822V669.073H2128.69V483.653H2155.16V669.073H2199.7V258.822H2084.15ZM2155.16 443.065H2128.69V298.822H2155.16V443.065Z" fill="#D79D5D"/>
<path d="M2345.33 451.258C2347.01 448.064 2348.06 444.661 2348.44 441.09C2348.81 437.518 2348.98 434.241 2348.98 431.216V294.83C2348.98 285.082 2345.41 276.594 2338.27 269.493C2331.13 262.351 2322.47 258.779 2312.34 258.779H2233.44V669.03H2277.98V483.61H2304.44V669.03H2348.98V494.325C2348.98 488.316 2347.76 482.224 2345.33 476.005C2342.89 469.829 2335.83 465.795 2324.19 463.905C2329.82 463.148 2334.32 461.636 2337.68 459.409C2341.04 457.182 2343.6 454.451 2345.28 451.258H2345.33ZM2304.44 443.064H2277.98V298.821H2304.44V443.064Z" fill="#D79D5D"/>
<path d="M2384.49 258.822V669.073H2429.57V258.822H2384.49Z" fill="#D79D5D"/>
<path d="M2614.95 298.822V258.822H2521.42V669.073H2614.95V629.073H2565.91V483.695H2607.05V443.149H2565.91V298.906H2614.95V298.822Z" fill="#D79D5D"/>
<path d="M2840.91 258.822V669.073H2886V258.822H2840.91Z" fill="#D79D5D"/>
<path d="M2966 629.031V258.822H2921.46V669.073H3012.22V629.073H2966V629.031Z" fill="#D79D5D"/>
<path d="M3301.29 637.308V258.822H3185.74V669.073H3230.28V483.653H3256.75V669.073H3301.29V637.35M3256.79 443.065H3230.32V298.822H3256.79V443.065Z" fill="#D79D5D"/>
<path d="M723.863 258.82V416.593H683.863V298.82H657.393V443.063H683.863V483.651H657.519V669.029H613.023V258.82H723.863Z" fill="#D79D5D"/>
<path d="M657.561 298.82H657.394V443.063H657.561V298.82Z" fill="#D79D5D"/>
<path d="M657.561 416.594H657.394V443.064H657.561V416.594Z" fill="#D79D5D"/>
<path d="M1553.11 669.03L1553.06 669.115L1552.98 669.03H1553.11Z" fill="#D79D5D"/>
<path d="M1649.24 572.938L1644.03 578.148V567.728L1649.24 572.938Z" fill="#D79D5D"/>
<path d="M1553.11 669.03L1553.06 669.115L1552.98 669.03H1553.11Z" fill="#D79D5D"/>
<path d="M1610.25 258.822V611.93L1553.1 669.031H1552.98L1495.84 611.93V258.822H1540.37V592.182L1553.06 604.871L1565.71 592.182V258.822H1610.25Z" fill="#D79D5D"/>
<path d="M3151.96 258.822V611.93L3094.82 669.031H3094.69L3037.55 611.93V258.822H3082.09V592.182L3094.78 604.871L3107.43 592.182V258.822H3151.96Z" fill="#D79D5D"/>
<path d="M2763.69 392.519V298.654H2738.44V399.242L2763.69 442.939L2806.5 517.183L2807.97 519.745V669.031H2694.11V457.015L2738.44 533.779V627.392H2763.69V527.014L2738.44 483.317L2695.12 408.275L2694.11 406.553V258.822H2807.97V469.284L2763.69 392.519Z" fill="#D79D5D"/>
<path d="M1100.79 55.4629H1117.18L1156.68 156.009H1140.58L1129.83 128.446H1088.19L1077.43 156.009H1061.34L1100.84 55.4629H1100.79ZM1124.2 114.328L1108.99 75.547L1093.78 114.328H1124.24H1124.2Z" fill="#D79D5D"/>
<path d="M1277.1 55.4619H1304.66C1337.85 55.4619 1360.54 74.9997 1360.54 105.714C1360.54 136.428 1337.85 155.966 1304.66 155.966H1277.1V55.4199V55.4619ZM1304.66 140.63C1329.37 140.63 1345.29 127.983 1345.29 105.714C1345.29 83.445 1329.37 70.798 1304.66 70.798H1292.47V140.588H1304.66V140.63Z" fill="#D79D5D"/>
<path d="M1480.96 55.4629H1497.05L1528.65 135.883L1560.25 55.4629H1576.47L1536.84 156.009H1520.46L1480.96 55.4629Z" fill="#D79D5D"/>
<path d="M1696.93 105.715C1696.93 76.9754 1720.62 53.7402 1749.32 53.7402C1778.02 53.7402 1801.59 77.0174 1801.59 105.715C1801.59 134.412 1777.89 157.689 1749.32 157.689C1720.75 157.689 1696.93 134.412 1696.93 105.715ZM1749.32 142.353C1769.57 142.353 1786.25 125.967 1786.25 105.715C1786.25 85.4628 1769.57 69.1182 1749.32 69.1182C1729.07 69.1182 1712.26 85.5048 1712.26 105.715C1712.26 125.925 1729.07 142.353 1749.32 142.353Z" fill="#D79D5D"/>
<path d="M1922.05 105.715C1922.05 76.9754 1945.62 53.7402 1974.32 53.7402C1990.71 53.7402 2005.33 61.3452 2015.12 73.2779L2002.93 82.4796C1996.04 74.4544 1985.71 69.1182 1974.36 69.1182C1954.11 69.1182 1937.47 85.5048 1937.47 105.715C1937.47 125.925 1954.11 142.353 1974.36 142.353C1992.01 142.353 2002.81 132.143 2006.84 116.933H1971.8V102.858H2023.94C2023.94 134.034 2005.41 157.731 1974.4 157.731C1945.67 157.731 1922.14 134.454 1922.14 105.757L1922.05 105.715Z" fill="#D79D5D"/>
<path d="M2183.81 55.4629H2200.2L2239.7 156.009H2223.6L2212.85 128.446H2171.21L2160.45 156.009H2144.36L2183.86 55.4629H2183.81ZM2207.22 114.328L2192.01 75.547L2176.8 114.328H2207.26H2207.22Z" fill="#D79D5D"/>
<path d="M2360.12 55.4619H2387.68C2420.87 55.4619 2443.56 74.9997 2443.56 105.714C2443.56 136.428 2420.87 155.966 2387.68 155.966H2360.12V55.4199V55.4619ZM2387.68 140.63C2412.39 140.63 2428.31 127.983 2428.31 105.714C2428.31 83.445 2412.39 70.798 2387.68 70.798H2375.5V140.588H2387.68V140.63Z" fill="#D79D5D"/>
<path d="M2563.98 105.715C2563.98 76.9754 2587.68 53.7402 2616.38 53.7402C2645.07 53.7402 2668.65 77.0174 2668.65 105.715C2668.65 134.412 2644.95 157.689 2616.38 157.689C2587.81 157.689 2563.98 134.412 2563.98 105.715ZM2616.42 142.353C2636.67 142.353 2653.35 125.967 2653.35 105.715C2653.35 85.4628 2636.67 69.1182 2616.42 69.1182C2596.17 69.1182 2579.36 85.5048 2579.36 105.715C2579.36 125.925 2596.17 142.353 2616.42 142.353Z" fill="#D79D5D"/>
<path d="M2789.11 130.841L2804.32 129.412C2804.61 131.555 2807.05 142.353 2820.83 142.353C2831.33 142.353 2837.47 136.765 2837.47 128.404C2837.47 118.908 2831.42 117.185 2819.36 111.891C2808.01 106.849 2792.22 102.143 2792.22 80.5888C2792.22 65.3788 2804.44 53.7402 2819.95 53.7402C2835.45 53.7402 2846.5 64.9586 2847.8 77.0174L2832.59 78.8661C2832.17 75.7149 2828.43 69.1182 2819.95 69.1182C2812.17 69.1182 2807.3 74.1603 2807.3 80.5888C2807.3 89.2022 2812.89 92.2275 2825.7 97.9838C2836.75 102.858 2853.01 107.48 2853.01 128.446C2853.01 146.261 2839.06 157.731 2820.83 157.731C2800.87 157.731 2790.07 144.244 2789.11 130.883V130.841Z" fill="#D79D5D"/>
</svg>
