<svg width="3302" height="819" viewBox="0 0 3302 819" fill="none" xmlns="http://www.w3.org/2000/svg">
<path d="M255.798 0C226.387 0 202.522 24.1176 202.522 53.8654C202.522 83.6131 226.387 107.773 255.798 107.773C285.21 107.773 309.076 83.6552 309.076 53.8654C309.076 24.0756 285.21 0 255.798 0ZM255.798 80.84C241.093 80.84 229.16 68.7812 229.16 53.9073C229.16 39.0334 241.093 26.9746 255.798 26.9746C270.504 26.9746 282.437 39.0334 282.437 53.9073C282.437 68.7812 270.504 80.84 255.798 80.84Z" fill="#024ABA"/>
<path d="M319.748 258.655V776.342L255.756 818.233L191.849 776.384V258.655H234.496V727.225L255.756 741.174L277.101 727.183V258.655H319.748Z" fill="#024ABA"/>
<path d="M170.546 258.655V409.537H127.941V323.319H106.638V431.092H127.941V474.201H106.638V720.502L64.0334 692.561V334.075C78.109 334.075 91.3024 330.126 102.563 323.319C103.949 322.478 105.336 321.596 106.638 320.63C115.21 314.621 122.521 306.848 127.941 297.815C131.218 292.353 133.865 286.47 135.714 280.21C137.731 273.403 138.823 266.134 138.823 258.655H170.546Z" fill="#024ABA"/>
<path d="M511.553 258.529C511.553 294.159 482.897 323.066 447.603 323.066C431.217 323.066 416.301 316.848 404.956 306.638C391.889 294.831 383.696 277.688 383.654 258.613H426.259C426.259 270.503 435.797 280.167 447.561 280.167C459.326 280.167 468.864 270.503 468.864 258.613C468.864 246.722 459.326 237.058 447.561 237.058H63.9077C52.143 237.058 42.6049 246.722 42.6049 258.613C42.6049 270.503 52.143 280.167 63.9077 280.167C75.6723 280.167 85.2099 270.503 85.2099 258.613H127.857C127.857 277.688 119.579 294.831 106.554 306.638C100.42 312.184 93.1931 316.554 85.2519 319.411C78.5713 321.806 71.4287 323.066 63.9497 323.066C28.6137 323.066 0 294.159 0 258.529C0 222.899 28.6137 193.949 63.9497 193.949H447.603C482.897 193.949 511.553 222.857 511.553 258.529Z" fill="#024ABA"/>
<path d="M85.2943 129.327H426.301V140.083C426.301 157.94 411.805 172.436 393.948 172.436H117.605C99.7477 172.436 85.2522 157.94 85.2522 140.083V129.327H85.2943Z" fill="#024ABA"/>
<path d="M404.999 400.545V323.067H383.697V409.495L447.646 474.159V692.561L341.092 762.393V457.856L383.739 500.965V657.393L405.041 643.444V492.016L341.092 427.352V258.655H372.814C372.814 284.327 385.588 307.016 404.999 320.63C406.218 321.512 407.478 322.31 408.739 323.109C420.083 330.084 433.403 334.117 447.646 334.117V443.697L404.999 400.587V400.545Z" fill="#024ABA"/>
<path d="M657.394 298.822V443.065H657.562V298.822H657.394Z" fill="#024ABA"/>
<path d="M869.493 451.258C871.216 448.065 872.224 444.662 872.602 441.091C872.98 437.519 873.191 434.242 873.191 431.217V294.83C873.191 285.083 869.577 276.595 862.476 269.494C855.333 262.352 846.678 258.78 836.594 258.78H757.687V669.031H802.224V483.611H828.695V669.031H873.233V494.326C873.233 488.317 871.972 482.225 869.535 476.006C867.098 469.83 860.039 465.796 848.401 463.906C854.031 463.149 858.569 461.637 861.93 459.41C865.291 457.141 867.854 454.452 869.535 451.258H869.493ZM828.653 443.065H802.182V298.822H828.653V443.065Z" fill="#024ABA"/>
<path d="M1000.54 298.822V258.822H906.972V669.073H1000.54V629.073H951.51V483.695H992.644V443.149H951.51V298.906H1000.54V298.822Z" fill="#024ABA"/>
<path d="M1027.56 258.822V669.073H1072.64V258.822H1027.56Z" fill="#024ABA"/>
<path d="M1220 451.258C1221.72 448.065 1222.73 444.662 1223.11 441.091C1223.48 437.519 1223.65 434.242 1223.65 431.217V294.83C1223.65 285.083 1220.08 276.595 1212.94 269.494C1205.8 262.352 1197.14 258.78 1187.01 258.78H1108.15V669.031H1152.64V483.611H1179.16V669.031H1223.65V494.326C1223.65 488.317 1222.43 482.225 1220 476.006C1217.56 469.83 1210.5 465.796 1198.86 463.906C1204.49 463.149 1209.03 461.637 1212.39 459.41C1215.75 457.183 1218.32 454.452 1220 451.258ZM1179.16 443.065H1152.64V298.822H1179.16V443.065Z" fill="#024ABA"/>
<path d="M1351.05 298.822V258.822H1257.48V669.073H1351.05V629.073H1302.01V483.695H1343.15V443.149H1302.01V298.906H1351.05V298.822Z" fill="#024ABA"/>
<path d="M1373.02 617.183L1353.86 719.157H1387.68L1418.1 617.183H1373.02Z" fill="#024ABA"/>
<path d="M1644.03 567.729V578.149L1649.24 572.939L1644.03 567.729Z" fill="#024ABA"/>
<path d="M1644.03 258.822V567.729L1649.24 572.939L1644.03 578.149V669.031H1688.57V483.611H1715.04V669.031H1759.57V258.78H1644.03V258.822ZM1715.04 443.065H1688.57V298.822H1715.04V443.065Z" fill="#024ABA"/>
<path d="M1907.77 258.822V391.805H1863.23V298.822H1837.89V629.031H1863.23V536.048H1907.77V669.115H1863.23V669.031H1837.89V669.115H1793.36V258.822H1907.77Z" fill="#024ABA"/>
<path d="M2008.61 391.805V298.822H1983.27V629.031H2008.61V536.048H2053.14V669.115H2008.61V669.031H1938.73V258.822H2053.14V391.805H2008.61Z" fill="#024ABA"/>
<path d="M2084.15 258.822V669.073H2128.69V483.653H2155.16V669.073H2199.7V258.822H2084.15ZM2155.16 443.065H2128.69V298.822H2155.16V443.065Z" fill="#024ABA"/>
<path d="M2345.33 451.258C2347.01 448.065 2348.06 444.662 2348.44 441.091C2348.81 437.519 2348.98 434.242 2348.98 431.217V294.83C2348.98 285.083 2345.41 276.595 2338.27 269.494C2331.13 262.352 2322.47 258.78 2312.34 258.78H2233.44V669.031H2277.98V483.611H2304.44V669.031H2348.98V494.326C2348.98 488.317 2347.76 482.225 2345.33 476.006C2342.89 469.83 2335.83 465.796 2324.19 463.906C2329.82 463.149 2334.32 461.637 2337.68 459.41C2341.04 457.183 2343.6 454.452 2345.28 451.258H2345.33ZM2304.44 443.065H2277.98V298.822H2304.44V443.065Z" fill="#024ABA"/>
<path d="M2384.49 258.822V669.073H2429.57V258.822H2384.49Z" fill="#024ABA"/>
<path d="M2614.95 298.822V258.822H2521.42V669.073H2614.95V629.073H2565.91V483.695H2607.05V443.149H2565.91V298.906H2614.95V298.822Z" fill="#024ABA"/>
<path d="M2840.91 258.822V669.073H2886V258.822H2840.91Z" fill="#024ABA"/>
<path d="M2966 629.031V258.822H2921.46V669.073H3012.22V629.073H2966V629.031Z" fill="#024ABA"/>
<path d="M3301.29 637.308V258.822H3185.74V669.073H3230.28V483.653H3256.75V669.073H3301.29V637.35M3256.79 443.065H3230.32V298.822H3256.79V443.065Z" fill="#024ABA"/>
<path d="M723.863 258.822V416.595H683.863V298.822H657.393V443.065H683.863V483.653H657.519V669.031H613.023V258.822H723.863Z" fill="#024ABA"/>
<path d="M657.561 298.822H657.394V443.065H657.561V298.822Z" fill="#024ABA"/>
<path d="M657.561 416.595H657.394V443.065H657.561V416.595Z" fill="#024ABA"/>
<path d="M1553.11 669.031L1553.06 669.116L1552.98 669.031H1553.11Z" fill="#024ABA"/>
<path d="M1649.24 572.939L1644.03 578.149V567.729L1649.24 572.939Z" fill="#024ABA"/>
<path d="M1553.11 669.031L1553.06 669.116L1552.98 669.031H1553.11Z" fill="#024ABA"/>
<path d="M1610.25 258.822V611.93L1553.1 669.031H1552.98L1495.84 611.93V258.822H1540.37V592.182L1553.06 604.871L1565.71 592.182V258.822H1610.25Z" fill="#024ABA"/>
<path d="M3151.96 258.822V611.93L3094.82 669.031H3094.69L3037.55 611.93V258.822H3082.09V592.182L3094.78 604.871L3107.43 592.182V258.822H3151.96Z" fill="#024ABA"/>
<path d="M2763.69 392.519V298.654H2738.44V399.242L2763.69 442.939L2806.5 517.183L2807.97 519.745V669.031H2694.11V457.015L2738.44 533.779V627.392H2763.69V527.014L2738.44 483.317L2695.12 408.275L2694.11 406.553V258.822H2807.97V469.284L2763.69 392.519Z" fill="#024ABA"/>
<path d="M1100.79 55.4619H1117.18L1156.68 156.008H1140.58L1129.83 128.445H1088.19L1077.43 156.008H1061.34L1100.84 55.4619H1100.79ZM1124.2 114.327L1108.99 75.546L1093.78 114.327H1124.24H1124.2Z" fill="#024ABA"/>
<path d="M1277.1 55.4619H1304.66C1337.85 55.4619 1360.54 74.9997 1360.54 105.714C1360.54 136.428 1337.85 155.966 1304.66 155.966H1277.1V55.4199V55.4619ZM1304.66 140.63C1329.37 140.63 1345.29 127.983 1345.29 105.714C1345.29 83.445 1329.37 70.798 1304.66 70.798H1292.47V140.588H1304.66V140.63Z" fill="#024ABA"/>
<path d="M1480.96 55.4619H1497.05L1528.65 135.882L1560.25 55.4619H1576.47L1536.84 156.008H1520.46L1480.96 55.4619Z" fill="#024ABA"/>
<path d="M1696.93 105.714C1696.93 76.9744 1720.62 53.7393 1749.32 53.7393C1778.02 53.7393 1801.59 77.0165 1801.59 105.714C1801.59 134.411 1777.89 157.688 1749.32 157.688C1720.75 157.688 1696.93 134.411 1696.93 105.714ZM1749.32 142.352C1769.57 142.352 1786.25 125.966 1786.25 105.714C1786.25 85.4618 1769.57 69.1172 1749.32 69.1172C1729.07 69.1172 1712.26 85.5038 1712.26 105.714C1712.26 125.924 1729.07 142.352 1749.32 142.352Z" fill="#024ABA"/>
<path d="M1922.05 105.714C1922.05 76.9744 1945.62 53.7393 1974.32 53.7393C1990.71 53.7393 2005.33 61.3442 2015.12 73.277L2002.93 82.4786C1996.04 74.4534 1985.71 69.1172 1974.36 69.1172C1954.11 69.1172 1937.47 85.5038 1937.47 105.714C1937.47 125.924 1954.11 142.352 1974.36 142.352C1992.01 142.352 2002.81 132.142 2006.84 116.932H1971.8V102.857H2023.94C2023.94 134.033 2005.41 157.73 1974.4 157.73C1945.67 157.73 1922.14 134.453 1922.14 105.756L1922.05 105.714Z" fill="#024ABA"/>
<path d="M2183.81 55.4619H2200.2L2239.7 156.008H2223.6L2212.85 128.445H2171.21L2160.45 156.008H2144.36L2183.86 55.4619H2183.81ZM2207.22 114.327L2192.01 75.546L2176.8 114.327H2207.26H2207.22Z" fill="#024ABA"/>
<path d="M2360.12 55.4619H2387.68C2420.87 55.4619 2443.56 74.9997 2443.56 105.714C2443.56 136.428 2420.87 155.966 2387.68 155.966H2360.12V55.4199V55.4619ZM2387.68 140.63C2412.39 140.63 2428.31 127.983 2428.31 105.714C2428.31 83.445 2412.39 70.798 2387.68 70.798H2375.5V140.588H2387.68V140.63Z" fill="#024ABA"/>
<path d="M2563.98 105.714C2563.98 76.9744 2587.68 53.7393 2616.38 53.7393C2645.07 53.7393 2668.65 77.0165 2668.65 105.714C2668.65 134.411 2644.95 157.688 2616.38 157.688C2587.81 157.688 2563.98 134.411 2563.98 105.714ZM2616.42 142.352C2636.67 142.352 2653.35 125.966 2653.35 105.714C2653.35 85.4618 2636.67 69.1172 2616.42 69.1172C2596.17 69.1172 2579.36 85.5038 2579.36 105.714C2579.36 125.924 2596.17 142.352 2616.42 142.352Z" fill="#024ABA"/>
<path d="M2789.11 130.84L2804.32 129.411C2804.61 131.554 2807.05 142.352 2820.83 142.352C2831.33 142.352 2837.47 136.764 2837.47 128.403C2837.47 118.907 2831.42 117.184 2819.36 111.89C2808.01 106.848 2792.22 102.142 2792.22 80.5878C2792.22 65.3778 2804.44 53.7393 2819.95 53.7393C2835.45 53.7393 2846.5 64.9576 2847.8 77.0164L2832.59 78.8651C2832.17 75.7139 2828.43 69.1172 2819.95 69.1172C2812.17 69.1172 2807.3 74.1593 2807.3 80.5878C2807.3 89.2012 2812.89 92.2265 2825.7 97.9828C2836.75 102.857 2853.01 107.479 2853.01 128.445C2853.01 146.26 2839.06 157.73 2820.83 157.73C2800.87 157.73 2790.07 144.243 2789.11 130.882V130.84Z" fill="#024ABA"/>
</svg>
